<svg width="25" height="25" viewBox="0 0 25 25" fill="none" xmlns="http://www.w3.org/2000/svg">
<g clip-path="url(#clip0_8_29)">
<path d="M12.5 25C19.4036 25 25 19.4036 25 12.5C25 5.59644 19.4036 0 12.5 0C5.59644 0 0 5.59644 0 12.5C0 19.4036 5.59644 25 12.5 25Z" fill="#4D76A1"/>
<path fill-rule="evenodd" clip-rule="evenodd" d="M12.0279 17.9824H13.009C13.009 17.9824 13.3054 17.9498 13.4567 17.7867C13.5959 17.637 13.5915 17.3558 13.5915 17.3558C13.5915 17.3558 13.5723 16.0393 14.1833 15.8455C14.7856 15.6545 15.559 17.1178 16.3788 17.6804C16.9987 18.1062 17.4697 18.0129 17.4697 18.0129L19.6616 17.9824C19.6616 17.9824 20.8083 17.9117 20.2646 17.0102C20.22 16.9364 19.948 16.3433 18.6349 15.1244C17.2605 13.8487 17.4445 14.0551 19.1001 11.8484C20.1084 10.5046 20.5115 9.68416 20.3856 9.33276C20.2655 8.99808 19.5239 9.08654 19.5239 9.08654L17.0559 9.10192C17.0559 9.10192 16.873 9.07696 16.7373 9.15807C16.6047 9.23762 16.5194 9.42301 16.5194 9.42301C16.5194 9.42301 16.1288 10.4629 15.6078 11.3473C14.5088 13.2135 14.0694 13.312 13.8898 13.1961C13.472 12.926 13.5763 12.1112 13.5763 11.5323C13.5763 9.72382 13.8506 8.96978 13.0422 8.77459C12.7739 8.70975 12.5765 8.66696 11.8904 8.66006C11.0098 8.65092 10.2645 8.66273 9.84245 8.86951C9.56169 9.00699 9.3451 9.31338 9.47701 9.33098C9.64012 9.35282 10.0096 9.43058 10.2054 9.6973C10.4583 10.0413 10.4494 10.8141 10.4494 10.8141C10.4494 10.8141 10.5947 12.943 10.1101 13.2075C9.77738 13.3888 9.32104 13.0185 8.34128 11.3255C7.83925 10.4582 7.46023 9.49966 7.46023 9.49966C7.46023 9.49966 7.38715 9.32051 7.25679 9.22469C7.09859 9.1086 6.87755 9.07161 6.87755 9.07161L4.53232 9.08699C4.53232 9.08699 4.18026 9.09679 4.05102 9.24987C3.93604 9.38602 4.04188 9.66767 4.04188 9.66767C4.04188 9.66767 5.87796 13.9633 7.95691 16.128C9.86317 18.1127 12.0279 17.9824 12.0279 17.9824Z" fill="white"/>
</g>
<defs>
<clipPath id="clip0_8_29">
<rect width="25" height="25" fill="white"/>
</clipPath>
</defs>
</svg>
